<svg width="189" height="37" viewBox="0 0 189 37" fill="none" xmlns="http://www.w3.org/2000/svg">
<g clip-path="url(#clip0_4977_6244)">
<path d="M71.9071 1.8501C77.3175 1.8501 81.7044 6.2901 81.7044 11.7661C81.7044 17.2421 76.9885 21.6821 71.9071 21.6821C66.8256 21.6821 63.4624 18.3891 62.585 13.8381H63.499C64.3763 17.8711 67.3374 20.7571 71.9071 20.7571C76.4767 20.7571 80.7904 16.7241 80.7904 11.7661C80.7904 6.8081 76.8057 2.7751 71.9071 2.7751C70.8835 2.7751 69.8599 2.9601 68.946 3.2931C68.9094 3.2931 68.5804 3.4411 68.361 3.5521C67.8127 3.7741 67.5568 2.9601 68.0686 2.7011C68.8728 2.2571 70.4082 1.8501 71.9071 1.8501Z" fill="#E0906A"/>
<path d="M71.9079 3.88501C76.2216 3.88501 79.6946 7.40001 79.6946 11.766C79.6946 16.132 76.2216 19.647 71.9079 19.647C68.1425 19.647 64.633 17.427 64.4868 12.506C64.4868 12.469 64.4502 12.395 64.4502 12.358H65.5104C65.5104 12.395 65.547 12.432 65.547 12.469C65.4738 16.354 68.6909 18.611 71.9079 18.611C75.6367 18.611 78.671 15.54 78.671 11.766C78.671 7.99201 75.6367 4.92101 71.9079 4.92101C71.1036 4.92101 70.3725 5.06901 69.6414 5.32801C69.6048 5.32801 69.093 5.55001 68.764 5.69801C68.1791 5.92001 67.8501 4.92101 68.4715 4.69901C68.8005 4.55101 69.2758 4.36601 69.3123 4.36601C70.1531 4.03301 70.994 3.88501 71.9079 3.88501Z" fill="#E0906A"/>
<path d="M71.9072 5.91992C75.0877 5.91992 77.6831 8.54692 77.6831 11.7659C77.6831 14.9849 75.0877 17.6119 71.9072 17.6119C69.531 17.6119 67.5203 16.1689 66.6064 14.1339L67.5934 13.8749C68.3611 15.5029 70.0063 16.6129 71.9072 16.6129C74.5393 16.6129 76.6961 14.4299 76.6961 11.7659C76.6961 9.10192 74.5393 6.91892 71.9072 6.91892C71.2492 6.91892 70.5911 7.06692 70.0062 7.32592C69.4578 7.54792 69.0191 6.58592 69.8234 6.28992C70.4814 6.03092 71.1761 5.91992 71.9072 5.91992Z" fill="#E0906A"/>
<path d="M68.9472 12.0621C69.13 12.2471 69.13 12.5801 68.9472 12.7651L67.4118 14.3561C67.229 14.5411 66.9 14.5411 66.7172 14.3561C66.5344 14.1711 66.5344 13.8381 66.7172 13.6531L68.2526 12.0621C68.4354 11.8771 68.7644 11.8771 68.9472 12.0621Z" fill="#E0906A"/>
<path d="M67.302 9.98985C67.4848 10.1749 67.4848 10.5079 67.302 10.6929L65.401 12.7279C65.2182 12.9129 64.8892 12.9129 64.7064 12.7279C64.5237 12.5429 64.5237 12.2099 64.7064 12.0249L66.6074 9.98985C66.8267 9.80485 67.1192 9.76785 67.302 9.98985Z" fill="#E0906A"/>
<path d="M62.768 9.98985C62.5852 10.1749 62.5852 10.5079 62.768 10.6929L64.6689 12.7279C64.8517 12.9129 65.1807 12.9129 65.3635 12.7279C65.5463 12.5429 65.5463 12.2099 65.3635 12.0249L63.4626 9.98985C63.2798 9.80485 62.9508 9.76785 62.768 9.98985Z" fill="#E0906A"/>
<path d="M67.302 7.39998C67.4848 7.58498 67.4848 7.91798 67.302 8.10298L65.401 10.138C65.2182 10.323 64.8892 10.323 64.7064 10.138C64.5237 9.95298 64.5237 9.61998 64.7064 9.43498L66.6074 7.39998C66.8267 7.21498 67.1192 7.21498 67.302 7.39998Z" fill="#E0906A"/>
<path d="M62.768 7.39998C62.5852 7.58498 62.5852 7.91798 62.768 8.10298L64.6689 10.138C64.8517 10.323 65.1807 10.323 65.3635 10.138C65.5463 9.95298 65.5463 9.61998 65.3635 9.43498L63.4626 7.39998C63.2798 7.21498 62.9508 7.21498 62.768 7.39998Z" fill="#E0906A"/>
<path d="M67.302 4.95827C67.4848 5.14327 67.4848 5.47627 67.302 5.66127L65.401 7.69627C65.2182 7.88127 64.8892 7.88127 64.7064 7.69627C64.5237 7.51127 64.5237 7.17827 64.7064 6.99327L66.6074 4.95827C66.8267 4.81027 67.1192 4.77327 67.302 4.95827Z" fill="#E0906A"/>
<path d="M62.768 4.95827C62.5852 5.14327 62.5852 5.47627 62.768 5.66127L64.6689 7.69627C64.8517 7.88127 65.1807 7.88127 65.3635 7.69627C65.5463 7.51127 65.5463 7.17827 65.3635 6.99327L63.4626 4.95827C63.2798 4.81027 62.9508 4.77327 62.768 4.95827Z" fill="#E0906A"/>
<path d="M66.9724 2.146C67.2283 2.146 67.4476 2.368 67.4476 2.627V5.29098C67.4476 5.54998 67.2283 5.77198 66.9724 5.77198C66.7165 5.77198 66.4971 5.54998 66.4971 5.29098V2.664C66.4971 2.368 66.7165 2.146 66.9724 2.146Z" fill="#E0906A"/>
<path d="M65.1442 0C65.4001 0 65.6194 0.222 65.6194 0.481V4.847C65.6194 5.106 65.4001 5.328 65.1442 5.328C64.8883 5.328 64.6689 5.106 64.6689 4.847V0.481C64.6689 0.222 64.8883 0 65.1442 0Z" fill="#E0906A"/>
<path d="M68.6179 6.10498C68.8738 6.10498 69.0931 6.32698 69.0931 6.58598V12.358C69.0931 12.617 68.8738 12.839 68.6179 12.839C68.362 12.839 68.1426 12.617 68.1426 12.358V6.62298C68.1426 6.32698 68.362 6.10498 68.6179 6.10498Z" fill="#E0906A"/>
<path d="M61.526 6.10498C61.2701 6.10498 61.0508 6.32698 61.0508 6.58598V12.358C61.0508 12.617 61.2701 12.839 61.526 12.839C61.7819 12.839 62.0013 12.617 62.0013 12.358V6.62298C62.0013 6.32698 61.8185 6.10498 61.526 6.10498Z" fill="#E0906A"/>
<path d="M61.1966 12.0621C61.0139 12.2471 61.0139 12.5801 61.1966 12.7651L62.732 14.3561C62.9148 14.5411 63.2438 14.5411 63.4266 14.3561C63.6094 14.1711 63.6094 13.8381 63.4266 13.6531L61.8912 12.0621C61.7084 11.8771 61.416 11.8771 61.1966 12.0621Z" fill="#E0906A"/>
<path d="M63.0982 2.146C63.3541 2.146 63.5734 2.368 63.5734 2.627V5.29098C63.5734 5.54998 63.3541 5.77198 63.0982 5.77198C62.8423 5.77198 62.623 5.54998 62.623 5.29098V2.664C62.623 2.368 62.8423 2.146 63.0982 2.146Z" fill="#E0906A"/>
<path d="M6.58027 15.429H12.0638L9.32205 9.87901L6.58027 15.429ZM13.6358 18.537H5.04487L3.47292 21.682H0L9.32205 2.81201L18.6441 21.682H15.1712L13.6358 18.537ZM30.3058 2.81201C31.5853 2.81201 32.7917 3.07101 33.925 3.55201C35.0582 4.03301 36.0453 4.73601 36.9226 5.58701L34.6926 7.80701C33.4863 6.58601 32.024 5.95701 30.3058 5.95701C28.5876 5.95701 27.1253 6.58601 25.8824 7.80701C24.676 9.02801 24.0911 10.508 24.0911 12.247C24.0911 13.986 24.676 15.466 25.8824 16.724C27.1253 17.945 28.5876 18.537 30.3058 18.537C31.2197 18.537 32.0971 18.352 32.9014 17.982C33.7056 17.612 34.4002 17.094 34.9851 16.391V13.801H30.3058V10.693H38.0925V17.427C37.6538 18.056 37.1785 18.648 36.5936 19.166C36.0453 19.684 35.4238 20.128 34.7658 20.498C34.1077 20.868 33.3766 21.164 32.6455 21.349C31.8778 21.534 31.1101 21.645 30.3058 21.645C27.7103 21.645 25.5168 20.72 23.7255 18.87C21.8977 17.02 20.9838 14.8 20.9838 12.21C20.9838 9.62001 21.8977 7.40001 23.7255 5.55001C25.5168 3.73701 27.7103 2.81201 30.3058 2.81201ZM52.7884 5.95701H46.5371V12.21L52.7884 12.247C53.6292 12.247 54.3603 11.951 54.9818 11.322C55.6033 10.693 55.8957 9.95301 55.8957 9.10201C55.8957 8.25101 55.6033 7.51101 54.9818 6.88201C54.3603 6.25301 53.6292 5.95701 52.7884 5.95701ZM55.4205 21.682L51.8379 15.392H46.5737V21.682H43.5029V2.81201H52.825C54.5431 2.81201 56.0054 3.44101 57.2118 4.66201C58.4182 5.88301 59.0397 7.36301 59.0397 9.10201C59.0397 10.397 58.6741 11.618 57.9429 12.654C57.2118 13.727 56.2979 14.467 55.2012 14.911L59.0397 21.682H55.4205Z" fill="#11B55B"/>
<path d="M93.3675 2.81201C94.647 2.81201 95.8533 3.07101 96.9866 3.55201C98.1199 4.03301 99.1069 4.73601 99.9477 5.58701L97.7543 7.80701C96.5479 6.58601 95.0856 5.95701 93.3675 5.95701C91.6493 5.95701 90.187 6.58601 88.944 7.80701C87.7377 9.02801 87.1162 10.508 87.1162 12.247C87.1162 13.986 87.7377 15.466 88.944 16.724C90.1504 17.945 91.6127 18.537 93.3675 18.537C95.0491 18.537 96.5114 17.945 97.7543 16.724L99.9477 18.907C99.0704 19.795 98.0833 20.461 96.9866 20.942C95.8533 21.423 94.647 21.682 93.3675 21.682C90.7719 21.682 88.5785 20.757 86.7506 18.907C84.9228 17.057 84.0088 14.837 84.0088 12.247C84.0088 9.65701 84.9228 7.43701 86.7506 5.58701C88.5785 3.73701 90.7719 2.81201 93.3675 2.81201ZM114.643 5.95701H108.392V12.21L114.643 12.247C115.484 12.247 116.215 11.951 116.837 11.322C117.458 10.693 117.751 9.95301 117.751 9.10201C117.751 8.25101 117.458 7.51101 116.837 6.88201C116.215 6.25301 115.484 5.95701 114.643 5.95701ZM117.275 21.682L113.693 15.392H108.429V21.682H105.358V2.81201H114.68C116.398 2.81201 117.86 3.44101 119.067 4.66201C120.273 5.88301 120.895 7.36301 120.895 9.10201C120.895 10.397 120.529 11.618 119.798 12.654C119.067 13.727 118.153 14.467 117.056 14.911L120.895 21.682H117.275ZM138.661 2.81201V5.95701H129.339V10.693H138.661V13.801H129.339V18.537H138.661V21.682H126.269V2.81201H138.661ZM144.035 2.81201H150.25C152.809 2.81201 155.039 3.73701 156.83 5.58701C158.658 7.43701 159.572 9.65701 159.572 12.247C159.572 14.874 158.658 17.094 156.83 18.907C155.039 20.757 152.846 21.682 150.25 21.682H144.035V2.81201ZM150.25 18.537C151.968 18.537 153.43 17.945 154.637 16.724C155.843 15.466 156.465 13.986 156.465 12.247C156.465 10.508 155.843 9.02801 154.637 7.80701C153.43 6.58601 151.968 5.95701 150.25 5.95701H147.143V18.537H150.25ZM164.982 2.81201H168.053V21.719H164.982V2.81201ZM173.427 2.81201H189V5.95701H182.786V21.682H179.678V5.95701H173.427V2.81201Z" fill="#11B55B"/>
<path d="M0 36.0379H0.804255L1.60851 34.2249H5.37389L6.17814 36.0379H7.01896L3.87505 29.0449H3.14391L0 36.0379ZM1.93752 33.4849L3.50948 29.9699L5.08143 33.4849H1.93752ZM8.37157 36.0379H9.13927V29.8219H12.795V29.1189H8.37157V36.0379ZM14.2207 36.0379H14.9884V33.5959H16.67C18.1323 33.5959 19.3752 32.8189 19.3752 31.3389C19.3752 29.9699 18.3516 29.1189 16.7797 29.1189H14.1841L14.2207 36.0379ZM14.9884 32.8559V29.8219H16.7431C17.8764 29.8219 18.6075 30.3399 18.6075 31.3389C18.6075 32.2639 17.8398 32.8929 16.7066 32.8929L14.9884 32.8559ZM20.2161 36.0379H21.0203L21.8246 34.2249H25.5899L26.3942 36.0379H27.235L24.0911 29.0449H23.36L20.2161 36.0379ZM22.117 33.4849L23.689 29.9699L25.2609 33.4849H22.117ZM28.5876 36.0379H29.3553V33.5959H31.0369C32.4992 33.5959 33.7422 32.8189 33.7422 31.3389C33.7422 29.9699 32.7186 29.1189 31.1466 29.1189H28.5511L28.5876 36.0379ZM29.3553 32.8559V29.8219H31.1101C32.2433 29.8219 32.9745 30.3399 32.9745 31.3389C32.9745 32.2639 32.2068 32.8929 31.0735 32.8929L29.3553 32.8559ZM35.0582 36.1119C36.1184 36.1119 37.1054 35.4459 37.1054 30.5619V29.8219H40.03V36.0379H40.7977V29.0819H36.3377V30.3399C36.3377 35.0759 35.4238 35.3719 34.912 35.3719C34.6926 35.3719 34.4002 35.3349 34.2905 35.2609L34.1443 35.8899C34.3271 36.0009 34.7658 36.1119 35.0582 36.1119ZM42.7718 36.0379H45.4039C46.9758 36.0379 47.9629 35.1869 47.9629 33.8179C47.9629 32.3749 46.7565 31.7829 45.2942 31.7829H43.5395V29.1189H42.7718V36.0379ZM43.576 35.2979V32.4859H45.3673C46.5006 32.4859 47.2317 32.9299 47.2317 33.8549C47.2317 34.8169 46.5371 35.3349 45.4404 35.3349L43.576 35.2979ZM48.8768 36.0379H49.6445V29.0819H48.8768V36.0379ZM51.6186 36.0379H52.3863V34.1879L53.8486 32.7079L56.5172 36.0749H57.5043L54.3969 32.1899L57.358 29.1559H56.3344L52.3497 33.2999V29.0819H51.582L51.6186 36.0379ZM61.6718 36.0379H62.4395V32.9299H66.4242V36.0379H67.1919V29.0819H66.4242V32.1899H62.4395V29.1189H61.6718V36.0379ZM69.166 36.0379H74.2108V35.3349H69.9337V32.8929H73.699V32.1899H69.9337V29.8219H74.1377V29.1189H69.1294L69.166 36.0379ZM78.9632 36.1489C80.2062 36.1489 81.0104 35.7049 81.7416 34.9649L81.2298 34.4099C80.5718 35.0389 79.9503 35.4089 78.9998 35.4089C77.4644 35.4089 76.3311 34.1509 76.3311 32.5599C76.3311 30.9319 77.4644 29.7109 78.9998 29.7109C79.9503 29.7109 80.5718 30.1179 81.1567 30.6729L81.6685 30.1179C80.9739 29.4519 80.2428 29.0079 78.9998 29.0079C76.9526 29.0079 75.4903 30.6359 75.4903 32.5969C75.4903 34.5579 76.9526 36.1489 78.9632 36.1489ZM83.0942 36.0379H83.8619L87.9928 30.3029V36.0379H88.7605V29.0819H88.0294L83.8985 34.8169V29.0819H83.1308V36.0379H83.0942ZM90.6615 36.0379H95.7064V35.3349H91.4292V32.8929H95.1946V32.1899H91.4292V29.8219H95.6333V29.1189H90.6615V36.0379ZM100.239 36.0379H101.007V34.1879L102.469 32.7079L105.138 36.0749H106.125L103.018 32.1899L105.979 29.1559H104.955L100.971 33.2999V29.0819H100.203L100.239 36.0379ZM110.549 36.1489C112.669 36.1489 114.095 34.4839 114.095 32.5599C114.095 30.6359 112.669 28.9709 110.585 28.9709C108.465 28.9709 107.039 30.6359 107.039 32.5599C107.039 34.4839 108.465 36.1489 110.549 36.1489ZM110.585 35.4089C109.013 35.4089 107.843 34.1139 107.843 32.5599C107.843 30.9689 108.977 29.7109 110.549 29.7109C112.12 29.7109 113.29 31.0059 113.29 32.5599C113.29 34.1509 112.157 35.4089 110.585 35.4089ZM115.74 36.0379H116.507V33.5959H118.189C119.651 33.5959 120.894 32.8189 120.894 31.3389C120.894 29.9699 119.871 29.1189 118.299 29.1189H115.703V36.0379H115.74ZM116.507 32.8559V29.8219H118.262C119.395 29.8219 120.127 30.3399 120.127 31.3389C120.127 32.2639 119.359 32.8929 118.226 32.8929L116.507 32.8559ZM122.32 36.0379H123.088V29.8219H126.963V36.0379H127.73V29.0819H122.283L122.32 36.0379ZM132.921 36.1489C135.042 36.1489 136.467 34.4839 136.467 32.5599C136.467 30.6359 135.042 28.9709 132.958 28.9709C130.838 28.9709 129.412 30.6359 129.412 32.5599C129.412 34.4839 130.838 36.1489 132.921 36.1489ZM132.958 35.4089C131.386 35.4089 130.216 34.1139 130.216 32.5599C130.216 30.9689 131.35 29.7109 132.921 29.7109C134.493 29.7109 135.663 31.0059 135.663 32.5599C135.663 34.1509 134.53 35.4089 132.958 35.4089ZM138.113 36.0379H138.88V33.5959H140.562C142.024 33.5959 143.267 32.8189 143.267 31.3389C143.267 29.9699 142.244 29.1189 140.672 29.1189H138.076V36.0379H138.113ZM138.917 32.8559V29.8219H140.672C141.805 29.8219 142.536 30.3399 142.536 31.3389C142.536 32.2639 141.768 32.8929 140.635 32.8929L138.917 32.8559ZM144.108 36.0379H144.912L145.716 34.2249H149.518L150.323 36.0379H151.163L148.02 29.0449H147.288L144.108 36.0379ZM146.045 33.4849L147.617 29.9699L149.189 33.4849H146.045ZM158.146 37.5549H158.804L158.914 35.2979H158V29.0819H157.232V35.2979H153.284V29.0819H152.516V36.0009H158.146V37.5549ZM160.047 36.0379H160.815L164.945 30.3029V36.0379H165.713V29.0819H164.982L160.851 34.8539V29.0819H160.083V36.0379H160.047ZM167.102 36.0379H168.053L170.1 33.3739H172.074V36.0379H172.842V29.0819H169.881C169.003 29.0819 168.309 29.3409 167.87 29.7849C167.541 30.1179 167.358 30.6359 167.358 31.1539C167.358 32.3009 168.126 33.0039 169.259 33.2259L167.102 36.0379ZM169.954 32.7079C168.894 32.7079 168.162 32.1529 168.162 31.2279C168.162 30.3399 168.82 29.7849 169.954 29.7849H172.074V32.7079H169.954ZM177.96 36.1489C179.203 36.1489 180.007 35.7049 180.738 34.9649L180.226 34.4099C179.568 35.0389 178.947 35.4089 177.996 35.4089C176.461 35.4089 175.328 34.1509 175.328 32.5599C175.328 30.9319 176.461 29.7109 177.996 29.7109C178.947 29.7109 179.568 30.1179 180.153 30.6729L180.665 30.1179C179.97 29.4519 179.239 29.0079 177.996 29.0079C175.949 29.0079 174.487 30.6359 174.487 32.5969C174.523 34.5579 175.986 36.1489 177.96 36.1489ZM182.091 36.0379H184.723C186.295 36.0379 187.282 35.1869 187.282 33.8179C187.282 32.3749 186.075 31.7829 184.613 31.7829H182.858V29.1189H182.091V36.0379ZM182.895 35.2979V32.4859H184.686C185.82 32.4859 186.551 32.9299 186.551 33.8549C186.551 34.8169 185.856 35.3349 184.759 35.3349L182.895 35.2979ZM188.196 36.0379H188.963V29.0819H188.196V36.0379Z" fill="#11B55B"/>
<path d="M56.8096 35.4463H57.6504V37.1483H56.8096V35.4463Z" fill="#11B55B"/>
</g>
<defs>
<clipPath id="clip0_4977_6244">
<rect width="189" height="37" fill="white"/>
</clipPath>
</defs>
</svg>
